# xmcd
#
# Track frame offsets: 
#        150
#        5932
#        17403
#        29075
#        40718
#        53087
#        63774
#        75330
#        87001
#        98808
#        109246
#        119353
#        131674
#        143322
#        154290
#        164841
#        175534
#        186883
#        197212
#        208948
#        220451
#        231044
#        243358
#        256741
#        269453
#        283832
#        297846
#        311824
#        322649
#        331403
#        343539
#        353443
#        366346
#        376428
#
# Disc length: 5185 seconds
#
# Revision: 3
# Processed by: cddbd v1.5.2PL0 Copyright (c) Steve Scherf et al.
# Submitted via: ExactAudioCopyFreeDBPlugin 1.0
#
DISCID=f3143f22
DTITLE=Various Artist - The Sun Country Box:  Country Music Recorded 
DTITLE=by Sam Phillips, 1950-1959 [Bear Family]
DYEAR=2013
DGENRE=Country
TTITLE0=Slim Rhodes - The Slim Rhodes Show (WMC radio extracts)
TTITLE1=Slim Rhodes - Skunk Hollow Boogie
TTITLE2=Slim Rhodes - Save a Little Love for Me
TTITLE3=Slim Rhodes - Memphis Bounce
TTITLE4=Slim Rhodes - Sixty Days
TTITLE5=Slim Rhodes - Hotfood Rag
TTITLE6=Slim Rhodes - Time Marches On
TTITLE7=Slim Rhodes - Ozark Boogie
TTITLE8=Slim Rhodes - Red, White and Blue
TTITLE9=Slim Rhodes - Don't Believe
TTITLE10=Slim Rhodes - Uncertain Love
TTITLE11=Slim Rhodes - House of Sin
TTITLE12=Slim Rhodes - Are You Ashamed of Me
TTITLE13=Slim Rhodes - Bad Girl
TTITLE14=Slim Rhodes - Gonna Romp and Stomp
TTITLE15=Slim Rhodes - Take and Give
TTITLE16=Slim Rhodes - Do What I Do
TTITLE17=Slim Rhodes - I've Never Been So Blue
TTITLE18=Harmonica Frank Floyd - Swamp Root
TTITLE19=Harmonica Frank Floyd - Goin' Away Walkin'
TTITLE20=Harmonica Frank Floyd - Step it Up and Go
TTITLE21=Harmonica Frank Floyd - Howlin' Tomcat (1)
TTITLE22=Harmonica Frank Floyd - She Done Moved
TTITLE23=Harmonica Frank Floyd - Howlin' Tomcat (2)
TTITLE24=Harmonica Frank Floyd - The Great Medical Menagerist
TTITLE25=Harmonica Frank Floyd - Rockin' Chair Daddy
TTITLE26=Bob Price - How Can it Be
TTITLE27=Bob Price - Sticks and Stones
TTITLE28=Red Hadley - Tennessee Drag
TTITLE29=Red Hadley - If I Had as Much Money as I Had Time
TTITLE30=Red Hadley - Boogie Ramble
TTITLE31=Ripley Cotton Choppers - Blues Waltz
TTITLE32=Ripley Cotton Choppers - Silver Bell
TTITLE33=Ripley Cotton Choppers - Roses and Sunshine
EXTD=
EXTT0=
EXTT1=
EXTT2=
EXTT3=
EXTT4=
EXTT5=
EXTT6=
EXTT7=
EXTT8=
EXTT9=
EXTT10=
EXTT11=
EXTT12=
EXTT13=
EXTT14=
EXTT15=
EXTT16=
EXTT17=
EXTT18=
EXTT19=
EXTT20=
EXTT21=
EXTT22=
EXTT23=
EXTT24=
EXTT25=
EXTT26=
EXTT27=
EXTT28=
EXTT29=
EXTT30=
EXTT31=
EXTT32=
EXTT33=
PLAYORDER=
